<svg width="512" height="512" viewBox="0 0 512 512" fill="none" xmlns="http://www.w3.org/2000/svg">
<rect width="512" height="512" fill="#0F172A"/>
<path fill-rule="evenodd" clip-rule="evenodd" d="M149.2 81.6L228.4 144.8V363.2L148.4 435.2L62 363.2L62.8 144.8L149.2 81.6ZM149.2 146.4L115.6 168V343.2L148.4 369.6L182 343.2V168L149.2 146.4Z" fill="#FFD800"/>
<path d="M90.8 351.2L62 363.2L148.4 435.021V397.6L143.6 396L136.4 391.2L98.8 360.8L90.8 351.2Z" fill="#FBB300"/>
<path d="M137.2 392L148.4 369.6L115.6 343.2L98.8 360.8L137.2 392Z" fill="#E78F00"/>
<path d="M160.4 123.2L149.2 146.4L182 168L198 151.2L160.4 123.2Z" fill="#F3A400"/>
<path d="M137.2 392L148.4 369.6V397.6L143.6 396L137.2 392Z" fill="#FFC000"/>
<path d="M160.4 390.4L148.4 369.6V397.6L157.2 392.8L160.4 390.4Z" fill="#FFD200"/>
<path d="M198 151.2L182 168L201.2 155.2L198 151.2Z" fill="#FFC300"/>
<path d="M201.2 155.2L182 168H203.6L202.8 160L201.2 155.2Z" fill="#FFD100"/>
<path d="M198 151.2L201.2 155.2L229.2 145.6L149.2 81.6V117.6L160.4 123.2L198 151.2Z" fill="#EA9400"/>
<path d="M148.4 397.6V435.2L228.4 363.2L229.2 145.6L201.2 155.2L202.8 160L203.6 167.2V339.2L202 350.4L199.6 356.8L180.4 374.4L157.2 392.8L148.4 397.6Z" fill="#DF7F00"/>
<path d="M149.2 146.4L160.4 123.2L149.2 117.6L143.6 120L100.4 148L90.8 156.8L89.2 166.4V343.2L90.8 351.2L98.8 360.8L115.6 343.2V168L149.2 146.4Z" fill="#DF7F00"/>
<path d="M406.4 151.2L369.6 174.4L344.8 150.4L327.2 171.2V334.4L352 362.4L395.2 316L384.5 291.5L354 291L353.6 258.4L425.6 260L461.6 419.2L416 359.2L346.4 435.2L272 352.8V148L335.2 80L406.4 151.2Z" fill="#FFD800"/>
<path d="M308.4 348.8L280.4 360.8L346.8 435.2L346 391.2L333.2 381.6L316.4 361.6L308.4 348.8Z" fill="#FFBE00"/>
<path d="M346 391.2L346.8 435.2L416.4 359.2L426.8 341.6L461.2 417.6L426 260L407.6 283.2L417.2 314.4L416.4 327L403.6 340L359.6 386.4L346 391.2Z" fill="#DF7F00"/>
<path d="M407.6 283.2L384.5 291.5L393.2 276.8L407.6 283.2Z" fill="#FCB700"/>
<path d="M407.6 283.2L384.5 291.5L395.5 316L417.2 314.4L407.6 283.2Z" fill="#FFC500"/>
<path d="M426.8 341.6L416.4 359.2L430.8 350.4L426.8 341.6Z" fill="#F7AA00"/>
<path d="M335.6 121.6V80L406.8 151.2L370 174.4L372.4 146.4L354.8 128.8L345.2 150.4L327.6 171.2V334.4L352.4 362.4L333.2 381.6L308.4 353.6L300.4 340.8V162.4L307.6 150.4L326 128.8L335.6 121.6Z" fill="#DF7F00"/>
<path d="M354.8 128.8L345.2 150.4L360.4 134.4L354.8 128.8Z" fill="#F6A900"/>
<path d="M352.4 362.4L333.2 381.6L340.4 387.2L352.4 362.4Z" fill="#ED9800"/>
<path d="M340.4 387.2L352.4 362.4L350.8 389.6L346 391.2L340.4 387.2Z" fill="#FFC000"/>
<path d="M369.2 275.2L354 291L384.5 291.5L393.2 276.8L387 275.2H369.2Z" fill="#DF7F00"/>
<path d="M369.2 275.2L354 258.4L426 260L407.6 283.2L393.2 276.8L387 275.2H369.2Z" fill="#FFB800"/>
</svg>
